<?xml version="1.0" encoding="UTF-8"?>
<svg id="Layer_1" data-name="Layer 1" xmlns="http://www.w3.org/2000/svg" viewBox="0 0 146.3 192.38">
  <defs>
    <style>
      .cls-1 {
        fill: #fb4d42;
      }
    </style>
  </defs>
  <path class="cls-1" d="M117.81,15.24c23.51,17.92,34.91,49.14,24.77,77.76-11.39,32.14-37.32,61.13-58.19,87.43-1.57,1.15-10.14,12.02-10.95,11.96-.61-.05-4.45-4.31-5.16-5.09-14.3-15.75-27.72-32.96-39.75-50.43C16.25,119.05-1.4,91.81.09,69.39,3.97,10.9,70.6-20.74,117.81,15.24ZM104.65,21.16C72.6,2.11,31.36,15.89,17.14,49.98c-9.38,22.47-3.27,37.91,7.66,57.71,13.15,23.82,29.48,43.25,46.73,64.12.48.58.52,1.47,1.39,1.63,1.61.29,1.64-1.02,2.36-1.88,14.11-16.62,27.21-32.79,38.96-51.21,7.24-11.34,18.97-30.79,19.75-44.19,1.27-21.91-10.5-43.8-29.33-54.99Z"/>
  <path class="cls-1" d="M94.66,88.15c-23.96,21.37-61.16-3.84-49.55-34.19,8.77-22.94,40.34-26.58,54.35-6.26,8.56,12.42,6.52,30.35-4.8,40.45ZM84.86,50.44c-11.18-8.96-28.55-.94-29.33,13.2-.9,16.43,17.79,26.4,30.36,15.38,9.34-8.18,8.49-20.94-1.04-28.58Z"/>
</svg>