<?xml version="1.0" encoding="UTF-8"?>
<svg id="Layer_1" xmlns="http://www.w3.org/2000/svg" version="1.1" viewBox="0 0 24 24">
  <!-- Generator: Adobe Illustrator 29.5.1, SVG Export Plug-In . SVG Version: 2.1.0 Build 141)  -->
  <defs>
    <style>
      .st0 {
        fill: #34a6ba;
      }
    </style>
  </defs>
  <path class="st0" d="M20.67,15.76h0c-.47-.43-1.07-.53-1.51-.61h-.03c-.42-.08-.49-.12-.68-.29-.11-.1-.25-.26-.25-.47s.14-.36.25-.47l1.42-1.26c1.22-1.07,1.88-2.52,1.88-4.06s-.67-2.98-1.88-4.06c-1.68-1.48-3.98-2.3-6.49-2.3-2.89,0-5.78,1.1-7.94,3.01-2.06,1.82-3.19,4.25-3.19,6.86s1.13,5.04,3.19,6.85c1.02.9,2.23,1.6,3.59,2.08,1.31.46,2.69.7,4.07.7h.08c2.86,0,5.58-.96,7.47-2.64.45-.4.71-.98.72-1.62,0-.66-.25-1.31-.7-1.73h0ZM5.25,9.75c0-.3.09-.59.25-.83.16-.25.4-.44.67-.55.27-.11.58-.14.87-.09.29.06.56.2.77.41.21.21.35.48.41.77s.03.59-.09.87c-.11.27-.31.51-.55.67-.25.16-.54.25-.83.25-.4,0-.78-.16-1.06-.44s-.44-.66-.44-1.06ZM7.12,16.08c-.3,0-.59-.09-.83-.25-.25-.16-.44-.4-.55-.67s-.14-.58-.09-.87c.06-.29.2-.56.41-.77.21-.21.48-.35.77-.41.29-.06.59-.03.87.09.27.11.51.31.67.55.16.25.25.54.25.83,0,.4-.16.78-.44,1.06s-.66.44-1.06.44ZM9,6.75c0-.3.09-.59.25-.83.16-.25.4-.44.67-.55s.58-.14.87-.09c.29.06.56.2.77.41.21.21.35.48.41.77.06.29.03.59-.09.87-.11.27-.31.51-.55.67-.25.16-.54.25-.83.25-.4,0-.78-.16-1.06-.44-.28-.28-.44-.66-.44-1.06ZM12,19.45c-.44,0-.88-.13-1.25-.38s-.66-.6-.83-1.01-.21-.86-.13-1.3c.09-.44.3-.84.62-1.15.31-.31.72-.53,1.15-.62.44-.09.89-.04,1.3.13s.76.46,1.01.83c.25.37.38.81.38,1.25,0,.6-.24,1.17-.66,1.59s-.99.66-1.59.66ZM15.38,8.25c-.3,0-.59-.09-.83-.25-.25-.16-.44-.4-.55-.67-.11-.27-.14-.58-.09-.87.06-.29.2-.56.41-.77s.48-.35.77-.41c.29-.06.59-.03.87.09.27.11.51.31.67.55.16.25.25.54.25.83,0,.4-.16.78-.44,1.06s-.66.44-1.06.44Z"/>
</svg>