<?xml version="1.0" encoding="UTF-8"?>
<svg id="Layer_1" xmlns="http://www.w3.org/2000/svg" version="1.1" viewBox="0 0 24 24">
  <!-- Generator: Adobe Illustrator 29.5.1, SVG Export Plug-In . SVG Version: 2.1.0 Build 141)  -->
  <defs>
    <style>
      .st0 {
        fill: #1871bd;
      }
    </style>
  </defs>
  <path class="st0" d="M20.25,10.5v-6c0-.2-.08-.39-.22-.53-.14-.14-.33-.22-.53-.22H4.5c-.2,0-.39.08-.53.22s-.22.33-.22.53v6c-.6,0-1.17.24-1.59.66-.42.42-.66.99-.66,1.59v7.5h1.69v-1.5h17.62v1.5h1.69v-7.5c0-.6-.24-1.17-.66-1.59-.42-.42-.99-.66-1.59-.66ZM11.25,10.5h-5.62v-1.5c0-.2.08-.39.22-.53.14-.14.33-.22.53-.22h4.12c.2,0,.39.08.53.22.14.14.22.33.22.53v1.5ZM12.75,9c0-.2.08-.39.22-.53.14-.14.33-.22.53-.22h4.12c.2,0,.39.08.53.22.14.14.22.33.22.53v1.5h-5.62v-1.5Z"/>
</svg>