<?xml version="1.0" encoding="UTF-8"?>
<svg id="Layer_1" xmlns="http://www.w3.org/2000/svg" version="1.1" viewBox="0 0 24 24">
  <!-- Generator: Adobe Illustrator 29.5.1, SVG Export Plug-In . SVG Version: 2.1.0 Build 141)  -->
  <defs>
    <style>
      .st0 {
        fill: #357d90;
      }
    </style>
  </defs>
  <path class="st0" d="M16,22c1.1,0,2-.9,2-2s-.9-2-2-2-2,.9-2,2,.9,2,2,2Z"/>
  <path class="st0" d="M6,22c1.1,0,2-.9,2-2s-.9-2-2-2-2,.9-2,2,.9,2,2,2Z"/>
  <path class="st0" d="M22,7v-.52c0-1.92-1.48-3.48-3.35-3.48-1.66,0-2.54,1.27-3.18,2.03L6.67,15.35c-.55.65-.09,1.65.76,1.65h7.57c1.1,0,2-.9,2-2V6.27c.58-.68.97-1.27,1.65-1.27.77,0,1.35.66,1.35,1.48v.52h2Z"/>
  <path class="st0" d="M14.3,4.1c-1.27-.7-2.74-1.1-4.3-1.1-1.97,0-3.79.64-5.28,1.72l4.89,4.89s4.69-5.51,4.69-5.51Z"/>
</svg>