<?xml version="1.0" encoding="UTF-8"?>
<svg id="Layer_1" xmlns="http://www.w3.org/2000/svg" version="1.1" viewBox="0 0 24 24">
  <!-- Generator: Adobe Illustrator 29.5.1, SVG Export Plug-In . SVG Version: 2.1.0 Build 141)  -->
  <defs>
    <style>
      .st0 {
        fill: #357d90;
      }
    </style>
  </defs>
  <path class="st0" d="M22.69,4.5h-4.69V1.88c0-.1-.04-.19-.11-.27-.07-.07-.17-.11-.27-.11H6.38c-.1,0-.19.04-.27.11s-.11.17-.11.27v2.62H1.31c-.15,0-.29.06-.4.16-.11.11-.16.25-.16.4v16.88c0,.15.06.29.16.4.11.11.25.16.4.16h21.38c.15,0,.29-.06.4-.16.11-.11.16-.25.16-.4V5.06c0-.15-.06-.29-.16-.4-.11-.11-.25-.16-.4-.16ZM7.88,3.38h8.25v1.12H7.88v-1.12ZM16.5,14.53h-3.47v3.47h-2.06v-3.47h-3.47v-2.06h3.47v-3.47h2.06v3.47h3.47s0,2.06,0,2.06Z"/>
</svg>