<?xml version="1.0" encoding="UTF-8"?>
<svg id="Layer_1" xmlns="http://www.w3.org/2000/svg" version="1.1" viewBox="0 0 24 24">
  <!-- Generator: Adobe Illustrator 29.5.1, SVG Export Plug-In . SVG Version: 2.1.0 Build 141)  -->
  <defs>
    <style>
      .st0 {
        fill: #34a6ba;
      }
    </style>
  </defs>
  <path class="st0" d="M20.76,16.96c-.41-1.18-1.37-1.77-2.3-2.35-.81-.5-1.57-.98-2.07-1.83-1.37-2.36-2.13-3.78-4.38-3.78s-3.01,1.42-4.39,3.78c-.5.85-1.27,1.33-2.07,1.83-.93.58-1.89,1.17-2.3,2.35-.16.42-.24.87-.24,1.33,0,1.91,1.52,3.46,3.21,3.46s3.91-.85,5.8-.85,4.09.85,5.79.85,3.2-1.55,3.2-3.46c0-.45-.08-.9-.24-1.33,0,0-.01,0-.01,0Z"/>
  <path class="st0" d="M3.38,13.5c1.45,0,2.62-1.51,2.62-3.38s-1.18-3.38-2.62-3.38-2.62,1.51-2.62,3.38,1.18,3.38,2.62,3.38Z"/>
  <path class="st0" d="M8.62,9c1.45,0,2.62-1.51,2.62-3.38s-1.18-3.38-2.62-3.38-2.62,1.51-2.62,3.38,1.18,3.38,2.62,3.38Z"/>
  <path class="st0" d="M15.38,9c1.45,0,2.62-1.51,2.62-3.38s-1.18-3.38-2.62-3.38-2.62,1.51-2.62,3.38,1.18,3.38,2.62,3.38Z"/>
  <path class="st0" d="M20.62,13.5c1.45,0,2.62-1.51,2.62-3.38s-1.18-3.38-2.62-3.38-2.62,1.51-2.62,3.38,1.18,3.38,2.62,3.38Z"/>
</svg>