<?xml version="1.0" encoding="UTF-8"?>
<svg id="Layer_1" xmlns="http://www.w3.org/2000/svg" version="1.1" viewBox="0 0 26 25">
  <!-- Generator: Adobe Illustrator 29.5.1, SVG Export Plug-In . SVG Version: 2.1.0 Build 141)  -->
  <defs>
    <style>
      .st0 {
        fill: #357d90;
      }
    </style>
  </defs>
  <path class="st0" d="M7,13.4c0-3.31,2.69-6,6-6s6,2.69,6,6v7.6H7v-7.6Z"/>
  <path class="st0" d="M14,1c0-.55-.45-1-1-1s-1,.45-1,1h2ZM13,6.6h1V1h-2v5.6h1Z"/>
  <path class="st0" d="M4.81,4.42c-.32-.45-.92-.54-1.36-.19-.43.35-.52.99-.21,1.44l1.56-1.25h.01ZM7.18,9.52l.78-.62-3.15-4.48-.78.62-.78.62,3.15,4.48s.78-.62.78-.62Z"/>
  <path class="st0" d="M21.37,4.38c.32-.45.92-.54,1.36-.19.43.35.52.99.21,1.44l-1.56-1.25h-.01ZM19,9.48l-.78-.62,3.15-4.48.78.62.78.62-3.15,4.48-.78-.63h0Z"/>
  <path class="st0" d="M1,12.8c-.55,0-1,.45-1,1s.45,1,1,1v-2ZM6.25,13.8v-1H1v2h5.25v-1Z"/>
  <path class="st0" d="M25,14.8c.55,0,1-.45,1-1s-.45-1-1-1v2ZM25,13.8v-1h-5.25v2h5.25v-1Z"/>
  <path class="st0" d="M4.75,25c0-1.77,1.43-3.2,3.2-3.2h10.1c1.77,0,3.2,1.43,3.2,3.2H4.75Z"/>
</svg>