<?xml version="1.0" encoding="UTF-8"?>
<svg id="Layer_1" xmlns="http://www.w3.org/2000/svg" version="1.1" viewBox="0 0 24 24">
  <!-- Generator: Adobe Illustrator 29.5.1, SVG Export Plug-In . SVG Version: 2.1.0 Build 141)  -->
  <defs>
    <style>
      .st0 {
        fill: #1871bd;
      }
    </style>
  </defs>
  <path class="st0" d="M12,10.94l1.61-1.61c-1.52-1.76-2.35-4.01-2.35-6.34,0-.23,0-.47.03-.7-2.08.15-4.05.96-5.63,2.31l6.34,6.35Z"/>
  <path class="st0" d="M14.68,8.26l3.67-3.67c-1.56-1.34-3.5-2.14-5.55-2.31-.02.23-.03.46-.03.7,0,1.93.67,3.8,1.91,5.28Z"/>
  <path class="st0" d="M15.74,9.32c1.48,1.24,3.35,1.91,5.28,1.91.23,0,.47-.01.7-.03-.16-2.05-.97-3.99-2.31-5.55l-3.67,3.67Z"/>
  <path class="st0" d="M8.26,14.68c-1.48-1.24-3.35-1.91-5.28-1.91-.24,0-.47.01-.7.03.16,2.05.97,3.99,2.31,5.55l3.67-3.67Z"/>
  <path class="st0" d="M12,13.06l-1.61,1.61c1.52,1.76,2.35,4.01,2.35,6.34,0,.23,0,.47-.03.7,2.08-.15,4.05-.96,5.63-2.31l-6.34-6.35Z"/>
  <path class="st0" d="M21.02,12.73c-2.33,0-4.58-.83-6.34-2.35l-1.61,1.61,6.35,6.34c1.36-1.58,2.17-3.56,2.32-5.63-.23.02-.47.03-.71.03Z"/>
  <path class="st0" d="M10.94,12l-6.35-6.34c-1.36,1.58-2.17,3.56-2.32,5.63.23-.02.47-.03.7-.03,2.33,0,4.58.83,6.34,2.35l1.62-1.61Z"/>
  <path class="st0" d="M5.66,19.41c1.56,1.34,3.5,2.14,5.55,2.31.02-.23.03-.46.03-.7,0-1.93-.68-3.8-1.91-5.28l-3.66,3.67Z"/>
</svg>