<?xml version="1.0" encoding="UTF-8"?>
<svg id="Layer_1" xmlns="http://www.w3.org/2000/svg" xmlns:xlink="http://www.w3.org/1999/xlink" version="1.1" viewBox="0 0 24 24">
  <!-- Generator: Adobe Illustrator 29.5.1, SVG Export Plug-In . SVG Version: 2.1.0 Build 141)  -->
  <defs>
    <style>
      .st0 {
        fill: none;
      }

      .st1 {
        fill: #fff;
      }

      .st2 {
        clip-path: url(#clippath);
      }
    </style>
    <clipPath id="clippath">
      <rect class="st0" width="24" height="24"/>
    </clipPath>
  </defs>
  <g class="st2">
    <path class="st1" d="M18.18,10l-1.7-4.68c-.29-.79-1.04-1.32-1.88-1.32h-2.6v2h2.6l1.46,4h-4.81l-.36-1h1.11v-2h-5v2h1.75l1.82,5h-.67c-.44-2.23-2.31-3.88-4.65-3.99C2.45,9.87,0,12.2,0,15s2.2,5,5,5c2.46,0,4.45-1.69,4.9-4h4.2c.44,2.23,2.31,3.88,4.65,3.99,2.8.13,5.25-2.19,5.25-5s-2.2-5-5-5h-.82ZM7.82,16c-.4,1.17-1.49,2-2.82,2-1.68,0-3-1.32-3-3s1.32-3,3-3c1.33,0,2.42.83,2.82,2h-2.82v2h2.82ZM14.1,14h-1.4l-.73-2h3.03c-.44.58-.76,1.25-.9,2ZM19,18c-1.68,0-3-1.32-3-3,0-.93.41-1.73,1.05-2.28l.96,2.64,1.88-.68-.97-2.67s.06-.01.09-.01c1.68,0,3,1.32,3,3s-1.33,3-3.01,3Z"/>
  </g>
</svg>