<?xml version="1.0" encoding="UTF-8"?>
<svg id="Layer_1" xmlns="http://www.w3.org/2000/svg" xmlns:xlink="http://www.w3.org/1999/xlink" version="1.1" viewBox="0 0 24 24">
  <!-- Generator: Adobe Illustrator 29.5.1, SVG Export Plug-In . SVG Version: 2.1.0 Build 141)  -->
  <defs>
    <style>
      .st0 {
        fill: none;
      }

      .st1 {
        fill: #fff;
      }

      .st2 {
        clip-path: url(#clippath);
      }
    </style>
    <clipPath id="clippath">
      <rect class="st0" width="24" height="24"/>
    </clipPath>
  </defs>
  <g class="st2">
    <path class="st1" d="M6.5,2c1.1,0,2,.9,2,2s-.9,2-2,2-2-.9-2-2,.9-2,2-2ZM15.5,9.5c0,.83.67,1.5,1.5,1.5s1.5-.67,1.5-1.5-.67-1.5-1.5-1.5-1.5.67-1.5,1.5ZM18.5,12h-2.84c-.58.01-1.14.32-1.45.86l-.92,1.32-3.57-6.18c-.37-.63-1.03-.99-1.71-1h-3.01c-1.1,0-2,.9-2,2v6h1.5v7h5v-10.39l2.53,4.39h2.2l.77-1.1v7.1h4v-5h1v-3.5c0-.82-.67-1.5-1.5-1.5Z"/>
  </g>
</svg>