<?xml version="1.0" encoding="UTF-8"?>
<svg id="Layer_1" xmlns="http://www.w3.org/2000/svg" version="1.1" viewBox="0 0 24 24">
  <!-- Generator: Adobe Illustrator 29.5.1, SVG Export Plug-In . SVG Version: 2.1.0 Build 141)  -->
  <defs>
    <style>
      .st0 {
        fill: #fff;
      }
    </style>
  </defs>
  <path class="st0" d="M12.52,22.22h-.04.04Z"/>
  <path class="st0" d="M21.04,8.8c-.01-.06-.04-.11-.08-.15-.04-.04-.1-.06-.16-.06s-.11.01-.16.05-.08.08-.1.14c-.02.05-.05.1-.09.13s-.1.05-.15.05h-.73s-.09-.01-.13-.04l-1.05-.63s-.09-.04-.13-.04h-1.68s-.1.02-.14.04l-2.07,1.38s-.07.06-.09.09c-.02.04-.03.08-.03.12v1.96s.01.09.04.13c.02.04.06.07.1.1l2.71,1.45s.07.05.1.09c.02.04.04.08.04.13v1.1s.03.09.05.13c.02.04.06.07.1.09l1.09.6s.07.06.1.1c.02.04.04.09.04.13v2.28s.01.1.04.14c.03.04.07.07.11.1.05.02.1.03.14.02.05,0,.1-.03.13-.06.44-.39,1.07-.95,1.15-1.08.14-.21.27-.43.39-.66.25-.47.46-.95.64-1.45.59-1.72.12-4.81-.18-6.38Z"/>
  <path class="st0" d="M13.42,14.19l-2.87-2.16s-.07-.04-.11-.04h-1.36s-.05,0-.07-.01c-.02,0-.04-.02-.06-.04l-.64-.64s-.04-.03-.06-.04c-.02,0-.05-.01-.07-.01h-2.49s-.07-.01-.1-.03c-.03-.02-.05-.05-.07-.08-.01-.03-.02-.07-.01-.1,0-.03.02-.07.05-.09l.39-.39s.04-.03.06-.04c.02,0,.04-.01.07-.01h1.52c.08,0,.16-.03.23-.08s.11-.12.13-.2l.32-1.15s.02-.05.03-.07c.02-.02.04-.04.06-.05l1.29-.66s.05-.04.07-.07c.02-.03.03-.06.03-.09v-.59s.01-.07.03-.1l.68-.99s.05-.05.08-.06l.96-.36s.06-.04.08-.07c.02-.03.03-.07.03-.1v-.53s0-.06-.02-.08c-.01-.03-.03-.05-.06-.06l-.96-.64s-.06-.03-.09-.03-.06,0-.09.02l-1.31.65s-.06.02-.1.02c-.03,0-.06-.02-.09-.04l-.62-.49s-.04-.04-.05-.06-.02-.05-.02-.08,0-.05.02-.08c.01-.02.03-.05.05-.06l.5-.37s.04-.04.05-.06c.01-.03.02-.05.02-.08s0-.06-.02-.08c-.01-.02-.03-.05-.06-.06l-.78-.55s-.06-.03-.09-.03-.07,0-.1.02c-.28.16-1.12.61-1.41.82-1.37.96-2.47,2.25-3.2,3.75-.09.18-.19.36-.2.55,0,.19-.16.63-.23.8,0,.02,0,.05,0,.07,0,.03,0,.05.02.07l1.67,3.07s.04.05.06.07l1.76,1.06s.04.03.06.05c.01.02.02.05.03.07l.35,2.56s.01.05.02.07c.01.02.03.04.05.05l1.37.94s.07.07.08.12l.73,3.46s.01.04.02.06c.07.11.34.52.67.58-.03,0-.06.03-.09.04.08.01.16.03.23.05.09.03.19.05.28.07.15.03.16.05.23-.08.09-.17.2-.23.28-.26.03,0,.06-.02.09-.05.02-.02.04-.05.05-.09l.47-2.19s.04-.09.07-.11l2.11-1.5s.04-.04.06-.07c.01-.03.02-.06.02-.09v-2.81s0-.06-.02-.08-.03-.05-.05-.07h.05Z"/>
  <path class="st0" d="M12.28,2.25s-.17,0-.21,0c-.25,0-.51.02-.76.05-.92.1-1.82.33-2.68.69.11.08-.08.15-.08.15l.31.6h1.64l1.12.56.98-.56-.33-1.5h0Z"/>
  <path class="st0" d="M16.6,5.63l.76-.66s.04-.05.05-.08c.01-.03.01-.06.01-.09s-.02-.06-.04-.09-.04-.05-.07-.06l-.88-.41s-.1-.02-.14,0c-.05.02-.08.05-.11.1l-.36.76s-.02.09-.01.13.04.08.08.11l.49.31s.07.03.11.03.08-.02.11-.05Z"/>
  <path class="st0" d="M20.14,6.59l-.27-.42s0-.01-.01-.02c-.05-.1-.46-.92-.8-1.24-.26-.24-.33-.17-.35-.12-.01.03-.03.06-.06.07l-1.35,1.09s-.07.04-.12.04h-.7s-.05,0-.07.01c-.02,0-.04.02-.06.04l-.56.56s-.03.04-.04.06c0,.02-.01.05-.01.07s0,.05.01.07c0,.02.02.04.04.06l.56.56s.04.03.06.04c.02,0,.05.01.07.01h3.52s.05,0,.07-.01c.02,0,.04-.02.06-.04.02-.02.03-.04.04-.06,0-.02.01-.05.01-.07l-.03-.62s-.01-.07-.03-.09h.02Z"/>
  <path class="st0" d="M12,3.38c2,0,3.93.69,5.47,1.96s2.6,3.03,2.99,4.98c.39,1.96.09,3.99-.85,5.75s-2.46,3.14-4.31,3.9c-1.84.76-3.89.86-5.8.29-1.91-.58-3.56-1.8-4.67-3.46-1.11-1.66-1.61-3.65-1.41-5.64.2-1.99,1.07-3.84,2.48-5.25.8-.8,1.75-1.44,2.8-1.87,1.05-.43,2.17-.66,3.3-.65h0ZM12,1.5C6.2,1.5,1.5,6.2,1.5,12s4.7,10.5,10.5,10.5,10.5-4.7,10.5-10.5S17.8,1.5,12,1.5Z"/>
</svg>