<?xml version="1.0" encoding="UTF-8"?>
<svg id="Layer_1" xmlns="http://www.w3.org/2000/svg" xmlns:xlink="http://www.w3.org/1999/xlink" version="1.1" viewBox="0 0 24 24">
  <!-- Generator: Adobe Illustrator 29.5.1, SVG Export Plug-In . SVG Version: 2.1.0 Build 141)  -->
  <defs>
    <style>
      .st0 {
        fill: none;
      }

      .st1 {
        fill: #fff;
      }

      .st2 {
        clip-path: url(#clippath);
      }
    </style>
    <clipPath id="clippath">
      <rect class="st0" width="24" height="24"/>
    </clipPath>
  </defs>
  <g class="st2">
    <path class="st1" d="M12,7V3H2v18h20V7h-10ZM6,19h-2v-2h2v2ZM6,15h-2v-2h2v2ZM6,11h-2v-2h2v2ZM6,7h-2v-2h2v2ZM10,19h-2v-2h2v2ZM10,15h-2v-2h2v2ZM10,11h-2v-2h2v2ZM10,7h-2v-2h2v2ZM20,19h-8v-2h2v-2h-2v-2h2v-2h-2v-2h8v10ZM18,11h-2v2h2v-2ZM18,15h-2v2h2v-2Z"/>
  </g>
</svg>