<?xml version="1.0" encoding="UTF-8"?>
<svg id="Layer_1" xmlns="http://www.w3.org/2000/svg" xmlns:xlink="http://www.w3.org/1999/xlink" version="1.1" viewBox="0 0 24 24">
  <!-- Generator: Adobe Illustrator 29.5.1, SVG Export Plug-In . SVG Version: 2.1.0 Build 141)  -->
  <defs>
    <style>
      .st0 {
        fill: none;
      }

      .st1 {
        fill: #fff;
      }

      .st2 {
        clip-path: url(#clippath);
      }
    </style>
    <clipPath id="clippath">
      <rect class="st0" width="24" height="24"/>
    </clipPath>
  </defs>
  <g class="st2">
    <path class="st1" d="M13.5,5.5c1.1,0,2-.9,2-2s-.9-2-2-2-2,.9-2,2,.9,2,2,2ZM20,12.5v10.5h-1v-10.5c0-.28-.22-.5-.5-.5s-.5.22-.5.5v1h-1v-.69c-1.46-.38-2.7-1.29-3.51-2.52-.31.87-.49,1.78-.49,2.71,0,.23.02.46.03.69l1.97,2.81v6.5h-2v-5l-1.78-2.54-.22,3.54-3,4-1.6-1.2,2.6-3.47v-5.33c0-1.15.18-2.29.5-3.39l-1.5.85v3.54h-2v-4.7l5.4-3.07h0c.59-.3,1.32-.32,1.94.04.36.21.63.51.8.85l.79,1.67c.65,1.31,2.01,2.21,3.57,2.21.83,0,1.5.67,1.5,1.5Z"/>
  </g>
</svg>