<?xml version="1.0" encoding="UTF-8"?>
<svg id="Layer_1" xmlns="http://www.w3.org/2000/svg" version="1.1" viewBox="0 0 24 24">
  <!-- Generator: Adobe Illustrator 29.5.1, SVG Export Plug-In . SVG Version: 2.1.0 Build 141)  -->
  <defs>
    <style>
      .st0 {
        fill: #fb4d42;
      }
    </style>
  </defs>
  <path class="st0" d="M12,1.5c-4.14,0-7.5,3.02-7.5,6.75,0,6,7.5,14.25,7.5,14.25,0,0,7.5-8.25,7.5-14.25,0-3.73-3.36-6.75-7.5-6.75ZM12,12c-.59,0-1.17-.18-1.67-.51-.49-.33-.88-.8-1.1-1.35-.23-.55-.29-1.15-.17-1.73.12-.58.4-1.12.82-1.54.42-.42.95-.71,1.54-.82.58-.12,1.19-.06,1.73.17.55.23,1.02.61,1.35,1.1.33.49.51,1.07.51,1.67,0,.8-.32,1.56-.88,2.12-.56.56-1.33.88-2.12.88Z"/>
</svg>